<svg width="19" height="19" viewBox="0 0 19 19" fill="none" xmlns="http://www.w3.org/2000/svg">
<path d="M8.79297 5.69141H10.793V9.69141H13.793V11.6914H8.79297V5.69141Z" fill="white"/>
<path fill-rule="evenodd" clip-rule="evenodd" d="M0.792969 9.69141C0.792969 4.72084 4.82241 0.691406 9.79297 0.691406C14.7635 0.691406 18.793 4.72084 18.793 9.69141C18.793 14.662 14.7635 18.6914 9.79297 18.6914C4.82241 18.6914 0.792969 14.662 0.792969 9.69141ZM2.79297 9.69141C2.79297 5.82541 5.92698 2.69141 9.79297 2.69141C13.659 2.69141 16.793 5.82541 16.793 9.69141C16.793 13.5574 13.659 16.6914 9.79297 16.6914C5.92698 16.6914 2.79297 13.5574 2.79297 9.69141Z" fill="white"/>
</svg>
