<svg aria-hidden="true" style="position:absolute;width:0;height:0;overflow:hidden" xmlns="http://www.w3.org/2000/svg">
  <defs>
    <symbol id="icon-menu" viewBox="0 0 32 32">
      <path fill="#f30000" style="fill: var(--color1, #f30000)" d="M2.667 8c0-0.736 0.597-1.333 1.333-1.333h24c0.736 0 1.333 0.597 1.333 1.333s-0.597 1.333-1.333 1.333h-24c-0.736 0-1.333-0.597-1.333-1.333z"></path>
      <path fill="#f30000" style="fill: var(--color1, #f30000)" d="M2.667 16.043c0-0.736 0.597-1.333 1.333-1.333h24c0.736 0 1.333 0.597 1.333 1.333s-0.597 1.333-1.333 1.333h-24c-0.736 0-1.333-0.597-1.333-1.333z"></path>
      <path fill="#f30000" style="fill: var(--color1, #f30000)" d="M4 22.753c-0.736 0-1.333 0.597-1.333 1.333s0.597 1.333 1.333 1.333h24c0.736 0 1.333-0.597 1.333-1.333s-0.597-1.333-1.333-1.333h-24z"></path>
    </symbol>
    <symbol id="icon-avatar" viewBox="0 0 32 32">
      <path fill="#0061a3" style="fill: var(--color1, #0061a3)" d="M5.333 0h21.333c2.946 0 5.333 2.388 5.333 5.333v21.333c0 2.946-2.388 5.333-5.333 5.333h-21.333c-2.946 0-5.333-2.388-5.333-5.333v-21.333c0-2.946 2.388-5.333 5.333-5.333z"></path>
      <path fill="#fff" style="fill: var(--color2, #fff)" d="M16.001 14.915c2.671 0 4.835-2.065 4.835-4.613s-2.165-4.613-4.835-4.613c-2.671 0-4.836 2.065-4.836 4.613s2.165 4.613 4.836 4.613z"></path>
      <path fill="#fff" style="fill: var(--color2, #fff)" d="M16 16.001c-4.713 0-8.533 3.645-8.533 8.14 0 1.199 1.019 2.171 2.276 2.171h12.516c1.257 0 2.275-0.972 2.275-2.171 0-4.496-3.821-8.14-8.533-8.14z"></path>
    </symbol>
  </defs>
</svg>
