<svg aria-hidden="true" style="position:absolute;width:0;height:0;overflow:hidden" xmlns="http://www.w3.org/2000/svg">
  <defs>
    <symbol id="icon-menu" viewBox="0 0 32 32">
      <path fill="#f30000" style="fill: var(--color1, #f30000)" d="M2.667 8c0-0.736 0.597-1.333 1.333-1.333h24c0.736 0 1.333 0.597 1.333 1.333s-0.597 1.333-1.333 1.333h-24c-0.736 0-1.333-0.597-1.333-1.333z"></path>
      <path fill="#f30000" style="fill: var(--color1, #f30000)" d="M2.667 16.043c0-0.736 0.597-1.333 1.333-1.333h24c0.736 0 1.333 0.597 1.333 1.333s-0.597 1.333-1.333 1.333h-24c-0.736 0-1.333-0.597-1.333-1.333z"></path>
      <path fill="#f30000" style="fill: var(--color1, #f30000)" d="M4 22.753c-0.736 0-1.333 0.597-1.333 1.333s0.597 1.333 1.333 1.333h24c0.736 0 1.333-0.597 1.333-1.333s-0.597-1.333-1.333-1.333h-24z"></path>
    </symbol>
    <symbol id="icon-avatar" viewBox="0 0 32 32">
      <path fill="#0061a3" style="fill: var(--color1, #0061a3)" d="M5.333 0h21.333c2.946 0 5.333 2.388 5.333 5.333v21.333c0 2.946-2.388 5.333-5.333 5.333h-21.333c-2.946 0-5.333-2.388-5.333-5.333v-21.333c0-2.946 2.388-5.333 5.333-5.333z"></path>
      <path fill="#fff" style="fill: var(--color2, #fff)" d="M16.001 14.915c2.671 0 4.835-2.065 4.835-4.613s-2.165-4.613-4.835-4.613c-2.671 0-4.836 2.065-4.836 4.613s2.165 4.613 4.836 4.613z"></path>
      <path fill="#fff" style="fill: var(--color2, #fff)" d="M16 16.001c-4.713 0-8.533 3.645-8.533 8.14 0 1.199 1.019 2.171 2.276 2.171h12.516c1.257 0 2.275-0.972 2.275-2.171 0-4.496-3.821-8.14-8.533-8.14z"></path>
    </symbol>
    <symbol id="icon-alarm" viewBox="0 0 32 32">
      <path  d="M14.809 9.586h3.368v6.737h5.053v3.368h-8.421v-10.105z"></path>
      <path  d="M1.336 16.322c0 8.372 6.786 15.158 15.158 15.158s15.158-6.786 15.158-15.158c0-8.371-6.787-15.158-15.158-15.158s-15.158 6.786-15.158 15.158zM4.704 16.322c0-6.511 5.278-11.789 11.789-11.789s11.79 5.278 11.79 11.789-5.278 11.789-11.79 11.789c-6.511 0-11.789-5.278-11.789-11.789z"></path>
    </symbol>
    <symbol id="icon-whatsapp" viewBox="0 0 20 20">
      <path fill="#25d366" style="fill: var(--color1, #25d366)" d="M19.828 10.28c0 5.345-4.333 9.677-9.677 9.677s-9.677-4.333-9.677-9.677c0-5.345 4.333-9.677 9.677-9.677s9.677 4.333 9.677 9.677z"></path>
      <path fill="#fafbfc" style="fill: var(--color2, #fafbfc)" d="M12.771 11.433c-0.157-0.052-0.839-0.419-0.996-0.472s-0.21-0.052-0.315 0.052c-0.144 0.203-0.302 0.395-0.472 0.577-0.105 0.105-0.157 0.105-0.315 0.052-0.438-0.147-0.834-0.399-1.153-0.734-0.325-0.277-0.592-0.616-0.786-0.996-0.105-0.157 0-0.21 0.052-0.315 0.082-0.077 0.153-0.165 0.21-0.262 0.052-0.105 0.105-0.157 0.157-0.262s0-0.157 0-0.262-0.315-0.786-0.472-1.048c-0.157-0.262-0.21-0.262-0.315-0.262h-0.262c-0.137 0.006-0.268 0.062-0.367 0.157-0.172 0.149-0.309 0.334-0.4 0.543s-0.133 0.435-0.125 0.663c0.048 0.536 0.248 1.047 0.577 1.473 0.595 0.943 1.454 1.692 2.469 2.154 0.367 0.157 0.629 0.21 0.839 0.315 0.288 0.092 0.594 0.11 0.891 0.052 0.4-0.107 0.751-0.347 0.996-0.681 0.066-0.221 0.102-0.451 0.105-0.681-0.107 0.001-0.213-0.017-0.315-0.052l-0.005-0.011zM10.15 14.998c-0.871 0.010-1.727-0.226-2.469-0.681l-0.157-0.105-1.84 0.472 0.477-1.782-0.105-0.157c-0.479-0.773-0.733-1.664-0.734-2.574-0.001-0.956 0.282-1.891 0.812-2.687s1.285-1.416 2.169-1.782c0.883-0.366 1.856-0.463 2.794-0.276s1.8 0.647 2.476 1.323c0.676 0.676 1.137 1.538 1.323 2.476s0.090 1.91-0.276 2.794c-0.366 0.883-0.987 1.638-1.782 2.169s-1.731 0.813-2.687 0.812zM14.244 6.129c-1.101-1.061-2.565-1.661-4.094-1.677-1.529 0-2.996 0.607-4.077 1.689s-1.689 2.548-1.689 4.077c-0 1.016 0.271 2.013 0.786 2.888l-0.849 3.004 3.098-0.786c0.853 0.465 1.812 0.699 2.783 0.681 0.757 0 1.507-0.149 2.207-0.439s1.335-0.715 1.871-1.25 0.96-1.171 1.25-1.871c0.29-0.7 0.439-1.449 0.439-2.207-0.037-1.536-0.657-2.999-1.735-4.094z"></path>
    </symbol>
    <symbol id="icon-facebook" viewBox="0 0 19 20">
      <path fill="#1877f2" style="fill: var(--color1, #1877f2)" d="M19.2 10.359c0 5.302-4.298 9.6-9.6 9.6s-9.6-4.298-9.6-9.6c0-5.302 4.298-9.6 9.6-9.6s9.6 4.298 9.6 9.6z"></path>
      <path fill="#fafbfc" style="fill: var(--color2, #fafbfc)" d="M8.56 15.897v-5.018h-1.664v-1.96h1.664v-1.461c0-1.669 1.040-2.6 2.501-2.6 0.728 0 1.352 0.052 1.513 0.052v1.768h-1.040c-0.832 0-0.988 0.364-0.988 0.936v1.248h1.929l-0.276 1.981h-1.654v5.002h-1.986v0.052z"></path>
    </symbol>
    <symbol id="icon-facebook-messenger" viewBox="0 0 19 20">
      <path fill="#1877f2" style="fill: var(--color1, #1877f2)" d="M19.2 10.358c0 5.302-4.298 9.6-9.6 9.6s-9.6-4.298-9.6-9.6c0-5.302 4.298-9.6 9.6-9.6s9.6 4.298 9.6 9.6z"></path>
      <path fill="#fff" style="fill: var(--color3, #fff)" d="M9.6 4.118c-3.427 0-6.24 2.603-6.24 5.828 0 1.718 0.816 3.244 2.080 4.308v2.344l2.308-1.125c0.587 0.172 1.2 0.301 1.852 0.301 3.427 0 6.24-2.603 6.24-5.828s-2.813-5.828-6.24-5.828zM9.6 5.132c2.891 0 5.2 2.162 5.2 4.814s-2.309 4.814-5.2 4.814c-0.621 0-1.215-0.115-1.771-0.301l-0.211-0.063-1.138 0.554v-1.14l-0.195-0.159c-1.154-0.886-1.885-2.215-1.885-3.706 0-2.652 2.309-4.814 5.2-4.814zM9.015 8.346l-3.136 3.231 2.811-1.52 1.495 1.568 3.104-3.279-2.747 1.505-1.527-1.505z"></path>
    </symbol>
    <symbol id="icon-twitter" viewBox="0 0 19 20">
      <path fill="#1da1f3" style="fill: var(--color4, #1da1f3)" d="M19.2 10.359c0 5.302-4.298 9.6-9.6 9.6s-9.6-4.298-9.6-9.6c0-5.302 4.298-9.6 9.6-9.6s9.6 4.298 9.6 9.6z"></path>
      <path fill="#fafbfc" style="fill: var(--color2, #fafbfc)" d="M13.678 8.561c0 0.091 0 0.182 0 0.26 0 2.691-2.054 5.798-5.798 5.798-1.157 0-2.223-0.338-3.133-0.91 0.156 0.013 0.325 0.026 0.481 0.026 0.949 0 1.833-0.325 2.535-0.871-0.897-0.013-1.651-0.611-1.898-1.417 0.13 0.026 0.247 0.039 0.39 0.039 0.182 0 0.364-0.026 0.533-0.078-0.936-0.182-1.638-1.001-1.638-1.989 0-0.013 0-0.013 0-0.026 0.273 0.156 0.585 0.247 0.923 0.26-0.546-0.364-0.91-0.988-0.91-1.703 0-0.377 0.104-0.728 0.273-1.027 1.001 1.235 2.509 2.041 4.199 2.132-0.039-0.143-0.052-0.312-0.052-0.468 0-1.131 0.91-2.041 2.041-2.041 0.585 0 1.118 0.247 1.482 0.637 0.468-0.091 0.897-0.26 1.3-0.494-0.156 0.481-0.481 0.871-0.897 1.131 0.416-0.052 0.806-0.156 1.17-0.325-0.26 0.416-0.598 0.78-1.001 1.066z"></path>
    </symbol>
  </defs>
</svg>
